<svg width="87" height="75" xmlns="http://www.w3.org/2000/svg" xmlns:xlink="http://www.w3.org/1999/xlink" xml:space="preserve" overflow="hidden"><defs><clipPath id="clip0"><rect x="497" y="309" width="87" height="75"/></clipPath><clipPath id="clip1"><path d="M510.711 314.955C497.055 328.463 507.697 380.927 530.93 380.719 546.074 380.59 548.094 367.697 551.54 358.099 555.369 347.46 574.733 352.144 578.331 339.48 581.024 330.021 569.468 322.19 559.137 322.359 548.365 322.528 545.461 334.17 542.717 344.849 539.703 356.531 530.166 360.402 523.825 354.775 516.942 348.7 517.705 331.649 531.945 326.865 545.491 322.359 546.898 312.97 536.467 310.37 533.169 309.512 529.778 309.052 526.368 309 520.901 309 515.314 310.449 510.711 314.955"/></clipPath><linearGradient x1="8.24345" y1="37.5603" x2="81.3907" y2="37.5603" gradientUnits="userSpaceOnUse" spreadMethod="pad" id="fill2"><stop offset="0" stop-color="#F16922"/><stop offset="1" stop-color="#EA9439"/></linearGradient><clipPath id="clip3"><path d="M523.825 354.784 523.745 354.705 523.825 354.784M523.745 354.705C516.952 348.542 517.766 331.629 531.945 326.915 545.491 322.359 546.898 312.97 536.467 310.37 534.305 309.922 532.104 309.69 529.895 309.675 505.958 309.675 509.043 341.435 523.745 354.705"/></clipPath><linearGradient x1="15.2051" y1="23.4151" x2="45.8541" y2="23.4151" gradientUnits="userSpaceOnUse" spreadMethod="pad" id="fill4"><stop offset="0" stop-color="#3F5473"/><stop offset="0.97" stop-color="#1E3160"/><stop offset="1" stop-color="#1E3160"/></linearGradient></defs><g clip-path="url(#clip0)" transform="translate(-497 -309)"><g clip-path="url(#clip1)"><path d="M0 0 82.9341 0 82.9341 71.9272-2.42312e-06 71.9272Z" fill="url(#fill2)" transform="matrix(1.01248 0 0 1 497.055 309)"/></g><g clip-path="url(#clip3)"><path d="M8.79364 0.674907 49.2384 0.674907 49.2384 45.7845 8.79364 45.7845Z" fill="url(#fill4)" transform="matrix(1.01248 0 0 1 497.055 309)"/></g><path d="M77.6441 20.277C64.801 10.3519 58.2901 34.0431 53.8238 49.0598 57.6053 38.4201 76.7309 43.1047 80.2841 30.4403 81.2528 26.8133 80.2553 22.9439 77.654 20.2373" fill="#9DA7B7" transform="matrix(1.01248 0 0 1 497.055 309)"/><path d="M103.529 25.6465 103.529 43.6109C103.371 46.4294 105.528 48.8423 108.346 49.0002 108.537 49.0109 108.728 49.0109 108.918 49.0002 110.362 49.0637 111.768 48.5245 112.799 47.5114 113.794 46.4629 114.321 45.0551 114.258 43.6109L114.258 25.6465 120.769 25.6465 120.769 53.7146 114.258 53.7146 114.258 47.6405C113.709 49.5627 112.57 51.2639 111.002 52.5038 109.419 53.6984 107.477 54.3212 105.494 54.2704 103.192 54.3675 100.958 53.4795 99.3502 51.8289 97.7501 50.0795 96.911 47.7658 97.0178 45.3974L97.0178 25.6465Z" fill="#9AA5B5" transform="matrix(1.01248 0 0 1 497.055 309)"/><path d="M145.413 53.7146 145.413 35.7304C145.497 34.2566 144.956 32.8155 143.924 31.7603 142.875 30.7651 141.468 30.2386 140.023 30.3013 138.582 30.2345 137.178 30.7745 136.153 31.7901 135.14 32.8448 134.609 34.2706 134.684 35.7304L134.684 53.6948 128.173 53.6948 128.173 25.6465 134.684 25.6465 134.684 31.7603C135.217 29.8203 136.366 28.1063 137.959 26.8772 139.546 25.6994 141.482 25.0879 143.457 25.1403 145.759 25.0432 147.994 25.9312 149.601 27.5818 151.201 29.3312 152.04 31.6449 151.933 34.0133L151.933 53.7146Z" fill="#9AA5B5" transform="matrix(1.01248 0 0 1 497.055 309)"/><path d="M159.328 25.6465 165.838 25.6465 165.838 53.7146 159.328 53.7146Z" fill="#9AA5B5" transform="matrix(1.01248 0 0 1 497.055 309)"/><path d="M176.567 14.8082C178.285 13.5392 180.39 12.9044 182.523 13.0118L186.393 13.0118 186.393 18.292 183.862 18.292C183.093 18.2577 182.343 18.5412 181.788 19.076 181.269 19.6045 180.986 20.3206 181.004 21.0611L181.004 25.6068 186.393 25.6068 186.393 30.877 181.004 30.877 181.004 53.7047 174.493 53.7047 174.493 30.877 170.712 30.877 170.712 25.6465 175.674 25.6465C174.822 23.7361 174.363 21.6737 174.324 19.5822 174.264 17.7235 175.098 15.9485 176.567 14.8082M191.108 13.6867 197.897 13.6867 197.897 21.2099 191.108 21.2099ZM191.277 25.6465 197.787 25.6465 197.787 53.7146 191.277 53.7146Z" fill="#9AA5B5" transform="matrix(1.01248 0 0 1 497.055 309)"/><path d="M205.191 13.0118 211.712 13.0118 211.712 32.2665C212.254 30.2072 213.444 28.3769 215.107 27.0459 216.786 25.7584 218.857 25.0858 220.972 25.1403 223.475 25.032 225.904 25.996 227.652 27.7903 229.395 29.6722 230.307 32.1761 230.183 34.7378L230.183 44.6629C230.305 47.2246 229.394 49.728 227.652 51.6105 225.9 53.3969 223.472 54.3563 220.972 54.2506 218.857 54.3051 216.786 53.6325 215.107 52.345 213.444 51.014 212.254 49.1836 211.712 47.1244L211.712 53.7444 205.191 53.7444ZM211.712 42.936C211.641 44.5731 212.248 46.1671 213.39 47.3427 214.535 48.4723 216.1 49.0731 217.707 49.0002 220.848 49.1825 223.542 46.7839 223.725 43.6428 223.738 43.4074 223.737 43.1713 223.722 42.936L223.722 36.4251C223.93 33.2856 221.553 30.5719 218.414 30.3638 218.179 30.3482 217.942 30.3472 217.707 30.3609 216.1 30.288 214.535 30.8887 213.39 32.0184 212.266 33.2022 211.678 34.7952 211.762 36.4251Z" fill="#9AA5B5" transform="matrix(1.01248 0 0 1 497.055 309)"/><path d="M255.442 51.6105C253.184 53.3862 250.373 54.3104 247.502 54.2208 244.211 54.3691 241.006 53.139 238.659 50.8264 236.38 48.4251 235.173 45.2016 235.314 41.8938L235.314 37.4871C235.17 34.179 236.378 30.9546 238.659 28.5545 243.64 24.0284 251.245 24.0284 256.226 28.5545 258.507 30.9546 259.715 34.179 259.571 37.4871L259.571 41.8144 241.627 41.8144 241.627 42.6779C241.555 44.2935 242.168 45.8645 243.314 47.0053 244.515 48.1196 246.113 48.7059 247.75 48.633 249.082 48.6697 250.391 48.2764 251.482 47.5114 252.506 46.7752 253.234 45.6986 253.537 44.4744L259.432 44.4744C259.032 47.2521 257.618 49.7834 255.462 51.5807M253.666 36.3953C253.732 34.8419 253.141 33.3323 252.038 32.2367 250.864 31.1552 249.305 30.5902 247.711 30.6686 246.093 30.5941 244.511 31.1571 243.304 32.2367 242.184 33.3236 241.581 34.8363 241.646 36.3953L241.646 37.0702 253.666 37.0702Z" fill="#9AA5B5" transform="matrix(1.01248 0 0 1 497.055 309)"/><path d="M283.004 25.3586 283.004 31.4824 277.615 31.4824C274.853 31.3011 272.466 33.3932 272.285 36.1554 272.271 36.3741 272.271 36.5935 272.285 36.8122L272.285 53.6849 265.774 53.6849 265.774 25.6465 272.285 25.6465 272.285 32.4948C272.807 30.4608 273.944 28.6375 275.541 27.2742 277.085 25.9972 279.036 25.3173 281.039 25.3586Z" fill="#9AA5B5" transform="matrix(1.01248 0 0 1 497.055 309)"/><path d="M167.248 17.4483C167.253 20.0246 165.169 22.1175 162.593 22.123 160.017 22.1285 157.924 20.0444 157.918 17.4682 157.913 14.8919 159.997 12.7989 162.573 12.7935 162.58 12.7934 162.586 12.7934 162.593 12.7935 165.164 12.7935 167.248 14.8775 167.248 17.4483" fill="#ED2024" transform="matrix(1.01248 0 0 1 497.055 309)"/><path d="M159.715 73.813 161.779 73.813 161.779 84.6313C162.045 83.4773 162.666 82.4359 163.556 81.6538 164.428 80.9237 165.535 80.5356 166.672 80.562 168.038 80.5224 169.35 81.098 170.245 82.1302 171.199 83.3002 171.686 84.7812 171.615 86.2888L171.615 90.6658C171.689 92.1738 171.201 93.6557 170.245 94.8244 169.363 95.8325 168.081 96.3992 166.742 96.3727 165.605 96.3991 164.497 96.0111 163.625 95.2809 162.714 94.5052 162.069 93.4641 161.779 92.3034L161.779 96.1841 159.685 96.1841ZM161.779 90.0206C161.715 91.2113 162.105 92.382 162.871 93.2959 164.334 94.8472 166.777 94.9188 168.329 93.4558 168.383 93.4041 168.437 93.3508 168.488 93.2959 169.232 92.3904 169.61 91.2402 169.55 90.0703L169.55 86.8744C169.609 85.7077 169.23 84.5611 168.488 83.6587 167.042 82.1074 164.611 82.0228 163.06 83.4698 162.995 83.5305 162.932 83.5935 162.871 83.6587 162.118 84.5568 161.729 85.7038 161.779 86.8744Z" fill="#9DA7B7" transform="matrix(1.01248 0 0 1 497.055 309)"/><path d="M177.838 100.839 179.297 96.1544 178.215 96.1544 173.808 82.2592 173.808 80.7506 175.674 80.7506 179.882 94.9236 184.15 80.7506 185.947 80.7506 185.947 82.2294 179.644 102.318 177.858 102.318Z" fill="#9DA7B7" transform="matrix(1.01248 0 0 1 497.055 309)"/><path d="M206.134 96.1544 204.07 96.1544 204.07 92.3927C203.808 93.5045 203.217 94.5112 202.373 95.2809 201.582 95.9894 200.556 96.3786 199.494 96.3727 198.334 96.4165 197.21 95.9613 196.408 95.1221 195.597 94.2251 195.173 93.0447 195.227 91.8369 195.17 90.5612 195.636 89.3177 196.517 88.3929 197.422 87.4908 198.664 87.0085 199.941 87.063L204.09 87.063 204.09 85.6437C204.131 84.8722 203.879 84.1137 203.385 83.5197 202.914 82.9815 202.224 82.6859 201.509 82.7158L196.348 82.7158 196.348 80.7307 201.837 80.7307C203.031 80.6827 204.183 81.1748 204.973 82.0706 205.799 83.0645 206.221 84.3331 206.154 85.6238ZM200.298 88.8495C199.501 88.8139 198.72 89.0837 198.115 89.6038 197.56 90.1116 197.255 90.837 197.281 91.5888 197.256 92.3618 197.568 93.1077 198.135 93.6334 198.753 94.1742 199.557 94.4551 200.378 94.4175 201.348 94.4534 202.286 94.0658 202.948 93.3555 203.64 92.5638 204.036 91.5574 204.07 90.507L204.07 88.8495Z" fill="#9DA7B7" transform="matrix(1.01248 0 0 1 497.055 309)"/><path d="M219.494 95.1221C218.392 96.0065 217.003 96.4519 215.593 96.3727 214.121 96.4416 212.674 95.9802 211.514 95.0725 210.452 94.1584 209.789 92.8655 209.668 91.4697L211.544 91.4697C211.653 92.3211 212.109 93.0895 212.804 93.5937 213.596 94.1386 214.544 94.4104 215.504 94.3678 216.381 94.4185 217.251 94.1853 217.985 93.7029 218.572 93.2798 218.908 92.59 218.878 91.8667 218.905 91.2631 218.634 90.6849 218.154 90.3184 217.453 89.8489 216.65 89.556 215.811 89.4648L214.382 89.2167C213.159 89.0909 211.998 88.6154 211.037 87.847 210.331 87.109 209.971 86.1065 210.045 85.0879 209.972 83.8302 210.454 82.6039 211.365 81.7332 212.384 80.8801 213.691 80.4503 215.017 80.5323 216.403 80.4662 217.764 80.9152 218.839 81.7927 219.846 82.7211 220.46 83.9994 220.556 85.3658L218.66 85.3658C218.578 84.5462 218.179 83.7911 217.548 83.2617 216.845 82.73 215.977 82.463 215.097 82.5073 214.306 82.4576 213.523 82.6858 212.883 83.1525 212.344 83.5846 212.045 84.249 212.08 84.939 212.059 85.5235 212.317 86.0832 212.774 86.4476 213.466 86.9018 214.255 87.1873 215.077 87.2813L216.516 87.5294C217.761 87.6582 218.945 88.1365 219.93 88.909 220.664 89.6292 221.052 90.6315 220.992 91.6583 221.04 92.9798 220.49 94.2524 219.494 95.1221Z" fill="#9DA7B7" transform="matrix(1.01248 0 0 1 497.055 309)"/><path d="M224.367 74.5772 226.65 74.5772 226.65 77.783 224.367 77.783ZM224.476 80.7506 226.56 80.7506 226.56 96.1544 224.476 96.1544Z" fill="#9DA7B7" transform="matrix(1.01248 0 0 1 497.055 309)"/><path d="M241.041 96.1544 238.977 96.1544 238.977 92.3927C238.711 93.5031 238.12 94.5089 237.279 95.2809 236.474 95.9879 235.433 96.3669 234.361 96.3429 233.198 96.4016 232.067 95.9568 231.255 95.1221 230.444 94.2251 230.02 93.0447 230.074 91.8369 230.024 90.5603 230.493 89.3179 231.374 88.3929 232.281 87.4939 233.522 87.0122 234.798 87.063L238.957 87.063 238.957 85.6437C238.993 84.8729 238.742 84.116 238.252 83.5197 237.778 82.985 237.09 82.6902 236.376 82.7158L231.255 82.7158 231.255 80.7307 236.743 80.7307C237.937 80.6827 239.089 81.1748 239.88 82.0706 240.702 83.0668 241.123 84.3337 241.061 85.6238ZM235.225 88.8495C234.425 88.8144 233.641 89.0839 233.031 89.6038 232.483 90.1157 232.183 90.8393 232.208 91.5888 232.179 92.3625 232.491 93.11 233.061 93.6334 233.679 94.176 234.483 94.4572 235.304 94.4175 236.272 94.4558 237.208 94.0676 237.865 93.3555 238.563 92.5674 238.964 91.5595 238.996 90.507L238.996 88.8495Z" fill="#9DA7B7" transform="matrix(1.01248 0 0 1 497.055 309)"/><path d="M254.678 96.1544 254.678 86.2888C254.719 85.266 254.364 84.2668 253.686 83.4999 253.035 82.7908 252.106 82.4027 251.145 82.4379 250.195 82.4049 249.279 82.7937 248.644 83.4999 247.973 84.2709 247.618 85.2672 247.651 86.2888L247.651 96.1544 245.557 96.1544 245.557 80.7506 247.651 80.7506 247.651 84.1648C247.895 83.1165 248.473 82.176 249.299 81.4851 250.107 80.825 251.123 80.4733 252.167 80.4926 253.415 80.4436 254.617 80.966 255.432 81.9118 256.293 82.9559 256.735 84.2822 256.673 85.6338L256.673 96.1544Z" fill="#9DA7B7" transform="matrix(1.01248 0 0 1 497.055 309)"/><path d="M270.092 95.013C267.737 96.9719 264.267 96.7724 262.152 94.5564 261.029 93.1995 260.456 91.4716 260.544 89.713L260.544 87.1523C260.463 85.4101 261.029 83.6994 262.132 82.3485 264.33 80.0217 267.999 79.9175 270.326 82.116 270.405 82.1913 270.483 82.2688 270.558 82.3485 271.666 83.6971 272.232 85.4094 272.146 87.1523L272.146 89.2167 262.588 89.2167 262.588 90.0206C262.53 91.1584 262.906 92.2758 263.64 93.147 265.023 94.5718 267.253 94.7381 268.831 93.5341 269.502 92.9749 269.963 92.2054 270.141 91.3506L272.067 91.3506C271.84 92.759 271.144 94.0495 270.092 95.013ZM270.191 86.8148C270.249 85.6831 269.873 84.5719 269.139 83.7083 267.653 82.179 265.209 82.1437 263.679 83.6296 263.653 83.6554 263.627 83.6817 263.601 83.7083 262.892 84.5826 262.538 85.6915 262.608 86.8148L262.608 87.4302 270.241 87.4302Z" fill="#9DA7B7" transform="matrix(1.01248 0 0 1 497.055 309)"/><path d="M276.404 82.7158 274.31 82.7158 274.31 80.7307 276.404 80.7307 276.404 77.3562 278.826 77.3562 277.833 80.7506 281.724 80.7506 281.724 82.7356 278.498 82.7356 278.498 92.7302C278.48 93.1134 278.608 93.4893 278.856 93.7822 279.086 94.049 279.426 94.1953 279.779 94.1793L281.704 94.1793 281.704 96.1643 279.421 96.1643C278.588 96.1988 277.784 95.8517 277.238 95.2214 276.658 94.5286 276.36 93.6426 276.404 92.7401Z" fill="#9DA7B7" transform="matrix(1.01248 0 0 1 497.055 309)"/></g></svg>